<svg width="35" height="43" viewBox="0 0 35 43" fill="none" xmlns="http://www.w3.org/2000/svg">
<path d="M9.10835 22.1877L12.2118 25.2911C11.9862 25.4258 11.729 25.4978 11.4663 25.4988C11.0875 25.5007 10.7238 25.3509 10.456 25.0832L9.31634 23.9435C9.08919 23.717 8.94489 23.4204 8.90714 23.1018C8.86939 22.7832 8.94039 22.4612 9.10835 22.1877ZM14.992 16.2464L18.1524 19.4068L19.4065 18.1526L16.2462 14.9923L14.992 16.2464ZM25.0827 10.4562L23.9431 9.31655C23.7165 9.0894 23.42 8.9451 23.1013 8.90735C22.7827 8.86959 22.4608 8.94062 22.1873 9.10859L25.2907 12.212C25.4587 11.9385 25.5297 11.6166 25.492 11.298C25.4542 10.9793 25.3098 10.6827 25.0827 10.4562ZM20.1528 9.10663C19.7493 8.70382 19.2028 8.47763 18.6327 8.47763C18.0626 8.47763 17.5161 8.70382 17.1126 9.10663L16.2728 9.94648C15.87 10.3499 15.6438 10.8964 15.6438 11.4665C15.6438 12.0367 15.87 12.5831 16.2728 12.9866L21.4126 18.1264C21.8161 18.5289 22.3629 18.7551 22.9327 18.7551C23.5025 18.7551 24.0493 18.5289 24.4527 18.1264L25.2926 17.2866C25.6954 16.8831 25.9216 16.3367 25.9216 15.7665C25.9216 15.1964 25.6954 14.6499 25.2926 14.2465L20.1528 9.10663ZM12.9861 16.2733C12.5827 15.8705 12.0362 15.6443 11.4661 15.6443C10.8959 15.6443 10.3495 15.8705 9.94599 16.2733L9.10614 17.1131C8.70334 17.5166 8.47714 18.063 8.47714 18.6332C8.47714 19.2033 8.70334 19.7498 9.10614 20.1532L14.246 25.2931C14.6494 25.6956 15.1962 25.9218 15.766 25.9218C16.3358 25.9218 16.8826 25.6956 17.2861 25.2931L18.126 24.4532C18.5288 24.0498 18.755 23.5033 18.755 22.9332C18.755 22.363 18.5288 21.8166 18.126 21.4131L12.9861 16.2733ZM34.3992 17.1998C34.3992 30.3102 18.3107 42.3535 17.6252 42.8596C17.3721 43.0468 17.0266 43.0468 16.7735 42.8596C16.0882 42.3535 -0.000488281 30.311 -0.000488281 17.1998C-0.000488281 12.6381 1.81165 8.26318 5.03729 5.03778C8.26294 1.81214 12.6378 0 17.1993 0C21.7608 0 26.1359 1.81214 29.3613 5.03778C32.5869 8.26342 34.3992 12.6383 34.3992 17.1998ZM30.0992 17.1998C30.0992 13.7784 28.7401 10.4974 26.3211 8.07807C23.9017 5.65903 20.6207 4.2999 17.1994 4.2999C13.7781 4.2999 10.497 5.65903 8.07767 8.07807C5.65862 10.4974 4.2995 13.7785 4.2995 17.1998C4.2995 20.6211 5.65862 23.9022 8.07767 26.3215C10.497 28.7405 13.7781 30.0996 17.1994 30.0996C20.6195 30.0958 23.8983 28.7354 26.317 26.317C28.7357 23.8985 30.0954 20.6202 30.0992 17.1998Z" fill="#AE0F0F"/>
</svg>
